REM MD5 2f082d4655488ba95d6ad2f820be6b2f
FILE "Umezawa Yukari no Taikyoku Igo - Heisei Kiin II (Japan).bin" BINARY
  TRACK 01 MODE2/2352
    INDEX 01 00:00:00
  TRACK 02 AUDIO
    INDEX 00 34:17:43
    INDEX 01 34:19:43
  TRACK 03 AUDIO
    INDEX 00 34:34:00
    INDEX 01 34:36:00
  TRACK 04 AUDIO
    INDEX 00 36:27:43
    INDEX 01 36:29:43
REM LEADOUT 38:21:11
